<svg fill="none" viewBox="0 0 87 28" xmlns="http://www.w3.org/2000/svg"><path d="m23 6.77778-11-5.77778-11 5.77778m22 0-11 5.77782m11-5.77782v14.44442l-11 5.7778m-11-20.22222 11 5.77782m-11-5.77782v14.44442l11 5.7778m0-14.4444v14.4444" stroke="#4a5568" stroke-linecap="round" stroke-linejoin="round" stroke-width="2"/><g fill="#4a5568"><path d="m30 21v-14.21875h5.1074c1.8294 0 3.2194.33529 4.1699 1.00586.9571.67057 1.4356 1.64388 1.4356 2.91989 0 .7357-.1693 1.364-.5078 1.8848-.3386.5208-.8366.9049-1.4942 1.1523.7422.1954 1.3119.5599 1.709 1.0938.3972.5338.5957 1.1849.5957 1.9531 0 1.3932-.4427 2.4414-1.3281 3.1445-.8789.6967-2.1842 1.0515-3.916 1.0645zm3.4277-6.0449v3.4082h2.2461c.6185 0 1.0938-.14 1.4258-.4199.332-.2865.4981-.6869.4981-1.2012 0-1.1849-.5892-1.7806-1.7676-1.7871zm0-2.2461h1.7871c.7487-.0065 1.2826-.1432 1.6016-.4102.319-.2669.4785-.6608.4785-1.1816 0-.599-.1725-1.0287-.5176-1.28908-.345-.26692-.9016-.40039-1.6699-.40039h-1.6797z"/><path d="m42.3438 15.6191c0-1.0546.205-1.9921.6152-2.8125.4101-.8268.9993-1.4615 1.7676-1.9043.7682-.4427 1.6699-.664 2.705-.664 1.5821 0 2.8288.4915 3.7403 1.4746.9114.9766 1.3672 2.3079 1.3672 3.9941v.1172c0 1.6472-.459 2.9557-1.377 3.9258-.9114.9635-2.1484 1.4453-3.7109 1.4453-1.5039 0-2.7116-.4492-3.6231-1.3476-.9114-.905-1.403-2.1289-1.4746-3.6719zm3.291.2051c0 .9766.153 1.6927.459 2.1485.3059.4557.7584.6835 1.3574.6835 1.1718 0 1.7708-.9016 1.7968-2.705v-.3321c0-1.8945-.6054-2.8418-1.8164-2.8418-1.1002 0-1.6959.8171-1.7871 2.4512z"/><path d="m58.0566 13.3438 1.5332-2.9102h3.418l-2.7832 5.1465 2.9199 5.4199h-3.4375l-1.6601-3.125-1.6309 3.125h-3.457l2.9297-5.4199-2.7735-5.1465h3.4571z"/><path d="m67.5391 21h-3.3008v-10.5664h3.3008zm-3.4961-13.29102c0-.46875.1692-.85286.5078-1.15234.3385-.29948.778-.44922 1.3183-.44922.5404 0 .9799.14974 1.3184.44922s.5078.68359.5078 1.15234-.1693.85287-.5078 1.15235-.778.44922-1.3184.44922c-.5403 0-.9798-.14974-1.3183-.44922-.3386-.29948-.5078-.6836-.5078-1.15235z"/><path d="m70.3027 21v-8.2812h-1.5332v-2.2852h1.5332v-.83985c0-1.20443.3549-2.13867 1.0645-2.80273.7096-.66407 1.7057-.9961 2.9883-.9961.4687 0 .983.06836 1.5429.20508l.0098 2.42188c-.2018-.0586-.472-.0879-.8105-.0879-.9961 0-1.4942.42969-1.4942 1.28907v.81055h2.0606v2.2852h-2.0606v8.2812z"/><path d="m81.0449 16.3906 1.7578-5.957h3.5254l-4.3066 12.334-.1856.4492c-.6119 1.3672-1.6927 2.0508-3.2421 2.0508-.4297 0-.8822-.0651-1.3575-.1953v-2.3535h.4297c.4623 0 .8138-.0684 1.0547-.2051.2474-.1302.4297-.3679.5469-.7129l.2636-.7031-3.6718-10.6641h3.5156z"/></g></svg>