<svg fill="none" viewBox="0 0 56 20" xmlns="http://www.w3.org/2000/svg"><g fill="#4a5568"><path d="m.771484 9.63867c0-1.6276.377606-2.93294 1.132816-3.91601.75521-.98959 1.76758-1.48438 3.03711-1.48438 1.11979 0 2.02474.39063 2.71484 1.17188v-5.41016h2.37305v15h-2.14844l-.11719-1.0938c-.70963.8594-1.6569 1.2891-2.84179 1.2891-1.23698 0-2.23959-.498-3.00782-1.4941-.76172-.9961-1.142576-2.3503-1.142576-4.06253zm2.373046.20508c0 1.07425.20508 1.91405.61524 2.51955.41666.5989 1.00585.8984 1.76757.8984.97006 0 1.67969-.4329 2.12891-1.2988v-4.51173c-.4362-.84635-1.13932-1.26953-2.10937-1.26953-.76823 0-1.36068.30599-1.77735.91797-.41667.60547-.625 1.52018-.625 2.74414z"/><path d="m18.0371 6.60156c-.3125-.05208-.6348-.07812-.9668-.07812-1.0872 0-1.8196.41666-2.1973 1.25v7.22656h-2.373v-10.56641h2.2656l.0586 1.18164c.5729-.91796 1.3672-1.37695 2.3828-1.37695.3386 0 .6185.04557.8399.13672z"/><path d="m18.7402 9.61914c0-1.03516.2051-1.96615.6153-2.79297.4101-.83333.9863-1.47135 1.7285-1.91406.7422-.44922 1.595-.67383 2.5586-.67383 1.4258 0 2.5814.45899 3.4668 1.37695.8919.91797 1.3737 2.13542 1.4453 3.65235l.0098.55664c0 1.04168-.2019 1.97268-.6055 2.79298-.3972.8203-.9701 1.4551-1.7188 1.9043-.7422.4492-1.6015.6738-2.5781.6738-1.4909 0-2.6855-.4948-3.584-1.4844-.8919-.9961-1.3379-2.3209-1.3379-3.97457zm2.3731.20508c0 1.08728.2246 1.94008.6738 2.55858.4492.612 1.0742.918 1.875.918s1.4225-.3125 1.8652-.9375c.4493-.625.6739-1.5397.6739-2.74416 0-1.06771-.2311-1.91406-.6934-2.53906-.4557-.625-1.0775-.9375-1.8652-.9375-.7748 0-1.39.30924-1.8457.92773-.4558.61198-.6836 1.52995-.6836 2.75391z"/><path d="m39.9512 9.81445c0 1.62765-.3711 2.93295-1.1133 3.91605-.7357.9765-1.7318 1.4648-2.9883 1.4648-1.0677 0-1.9303-.3711-2.5879-1.1133v4.9805h-2.8222v-14.62891h2.6171l.0977 1.03516c.6836-.82031 1.5755-1.23047 2.6758-1.23047 1.3021 0 2.3144.48177 3.0371 1.44531.7226.96355 1.084 2.29167 1.084 3.98438zm-2.8223-.20507c0-.98308-.1758-1.74154-.5273-2.2754-.3451-.53385-.8496-.80078-1.5137-.80078-.8854 0-1.4941.33854-1.8262 1.01563v4.32617c.3451.6966.9603 1.0449 1.8457 1.0449 1.3477 0 2.0215-1.1035 2.0215-3.31052z"/><path d="m47.7637 12.1289c0-.4232-.1758-.7454-.5274-.9668-.345-.2213-.9212-.4167-1.7285-.5859-.8073-.1693-1.4811-.3841-2.0215-.64456-1.1849-.57292-1.7773-1.40299-1.7773-2.49023 0-.91146.3841-1.67318 1.1523-2.28516.7683-.61198 1.7448-.91797 2.9297-.91797 1.263 0 2.2819.3125 3.0567.9375.7812.625 1.1718 1.43555 1.1718 2.43164h-2.373c0-.45573-.1693-.83333-.5078-1.13281-.3386-.30599-.7878-.45899-1.3477-.45899-.5208 0-.9472.12045-1.2793.36133-.3255.24089-.4883.56315-.4883.9668 0 .36458.153.64779.459.84961s.9245.4069 1.8555.61523c.931.20183 1.6601.44597 2.1875.73243.5338.27994.9277.61848 1.1816 1.01558.2604.3972.3907.8789.3907 1.4454 0 .9505-.3939 1.722-1.1817 2.3144-.7877.5859-1.8196.8789-3.0957.8789-.8659 0-1.6374-.1562-2.3144-.4687-.6771-.3125-1.2045-.7422-1.5821-1.2891s-.5664-1.1361-.5664-1.7676h2.3047c.0326.5599.2441.9929.6348 1.2989.3906.2994.9082.4492 1.5527.4492.625 0 1.1003-.1172 1.4258-.3516.3255-.2409.4883-.5534.4883-.9375z"/><path d="m53.6523 12.5c.4428 0 .7845.127 1.0254.3809.2409.2474.3614.5599.3614.9375 0 .3711-.1205.6803-.3614.9277-.2409.2409-.5826.3613-1.0254.3613-.4231 0-.7584-.1204-1.0058-.3613s-.3711-.5501-.3711-.9277.1204-.6901.3613-.9375c.2409-.2539.5794-.3809 1.0156-.3809z"/></g></svg>