<svg fill="none" viewBox="0 0 52 20" xmlns="http://www.w3.org/2000/svg"><g fill="#4a5568"><path d="m1.88477 16.2207h-1.8652388l5.5956988-15.43945h1.86524z"/><path d="m13.7793 15.1953c-1.5039 0-2.7246-.472-3.6621-1.416-.931-.9505-1.3965-2.2135-1.3965-3.78907v-.29296c0-1.05469.20183-1.99545.60547-2.82227.41016-.83333.98303-1.48112 1.71873-1.94336s1.556-.69336 2.461-.69336c1.4388 0 2.5488.45899 3.33 1.37695.7878.91797 1.1817 2.2168 1.1817 3.89649v.95708h-6.9043c.0716.8723.3613 1.5624.8691 2.0703.5143.5078 1.1589.7617 1.9336.7617 1.0873 0 1.9727-.4395 2.6563-1.3184l1.2793 1.2207c-.4232.6315-.9896 1.1231-1.6993 1.4746-.7031.3451-1.4941.5176-2.373.5176zm-.2832-9.05272c-.651 0-1.1784.22786-1.582.68359-.3972.45573-.6511 1.0905-.7618 1.9043h4.5215v-.17578c-.0521-.79427-.2636-1.39323-.6347-1.79688-.3711-.41015-.8855-.61523-1.543-.61523z"/><path d="m19.4238 9.63867c0-1.6276.3776-2.93294 1.1328-3.91601.7552-.98959 1.7676-1.48438 3.0372-1.48438 1.1197 0 2.0247.39063 2.7148 1.17188v-5.41016h2.373v15h-2.1484l-.1172-1.0938c-.7096.8594-1.6569 1.2891-2.8418 1.2891-1.237 0-2.2396-.498-3.0078-1.4941-.7617-.9961-1.1426-2.3503-1.1426-4.06253zm2.3731.20508c0 1.07425.2051 1.91405.6152 2.51955.4167.5989 1.0059.8984 1.7676.8984.97 0 1.6797-.4329 2.1289-1.2988v-4.51173c-.4362-.84635-1.1393-1.26953-2.1094-1.26953-.7682 0-1.3607.30599-1.7773.91797-.4167.60547-.625 1.52018-.625 2.74414z"/><path d="m30.7422 9.63867c0-1.64062.3841-2.94922 1.1523-3.92578.7748-.98307 1.8002-1.47461 3.0762-1.47461 1.2044 0 2.1517.41992 2.8418 1.25977l.1074-1.06446h2.1387v10.24411c0 1.3868-.4329 2.4805-1.2988 3.2813-.8594.8008-2.0215 1.2012-3.4864 1.2012-.7747 0-1.5332-.1628-2.2754-.4883-.7356-.319-1.2955-.739-1.6796-1.2598l1.123-1.4258c.7292.8659 1.6276 1.2989 2.6953 1.2989.7878 0 1.4095-.2149 1.8653-.6446.4557-.4232.6835-1.0482.6835-1.875v-.7129c-.6835.7618-1.595 1.1426-2.7343 1.1426-1.237 0-2.2494-.4915-3.0371-1.4746-.7813-.9831-1.1719-2.3437-1.1719-4.08203zm2.3633.20508c0 1.06115.2148 1.89775.6445 2.50975.4362.6055 1.0384.9082 1.8066.9082.9571 0 1.6667-.4101 2.1289-1.2305v-4.64839c-.4492-.80078-1.1523-1.20117-2.1093-1.20117-.7813 0-1.39.30925-1.8262.92774-.4297.61848-.6445 1.52994-.6445 2.73437z"/><path d="m47.1582 15.1953c-1.5039 0-2.7246-.472-3.6621-1.416-.931-.9505-1.3965-2.2135-1.3965-3.78907v-.29296c0-1.05469.2018-1.99545.6055-2.82227.4101-.83333.9831-1.48112 1.7187-1.94336.7357-.46224 1.556-.69336 2.461-.69336 1.4388 0 2.5488.45899 3.33 1.37695.7878.91797 1.1817 2.2168 1.1817 3.89649v.95708h-6.9043c.0716.8723.3613 1.5624.8691 2.0703.5144.5078 1.1589.7617 1.9336.7617 1.0873 0 1.9727-.4395 2.6563-1.3184l1.2793 1.2207c-.4232.6315-.9896 1.1231-1.6993 1.4746-.7031.3451-1.4941.5176-2.373.5176zm-.2832-9.05272c-.651 0-1.1784.22786-1.582.68359-.3972.45573-.6511 1.0905-.7618 1.9043h4.5215v-.17578c-.052-.79427-.2636-1.39323-.6347-1.79688-.3711-.41015-.8854-.61523-1.543-.61523z"/></g></svg>