<svg fill="none" viewBox="0 0 115 26" xmlns="http://www.w3.org/2000/svg"><g fill="#4a5568"><path d="m35.2559 20v-9.1699h-1.67v-1.39651h1.67v-1.08398c0-1.13281.3027-2.00846.9082-2.62695.6054-.61849 1.4616-.92774 2.5683-.92774.4167 0 .8301.05534 1.2403.16602l-.0977 1.46484c-.306-.05859-.6315-.08789-.9766-.08789-.5859 0-1.0384.17253-1.3574.51758-.319.33854-.4785.82682-.4785 1.46484v1.11328h2.2559v1.39651h-2.2559v9.1699z"/><path d="m45.4707 20.1953c-1.4323 0-2.5977-.4687-3.4961-1.4062-.8984-.944-1.3476-2.2038-1.3476-3.7793v-.3321c0-1.0481.1985-1.9824.5957-2.8027.4036-.8268.9635-1.4714 1.6796-1.93359.7227-.46875 1.5039-.70313 2.3438-.70313 1.3737 0 2.4414.45248 3.2031 1.35742.7617.905 1.1426 2.2005 1.1426 3.8867v.752h-7.1582c.026 1.0416.3288 1.8847.9082 2.5293.5859.638 1.3281.957 2.2266.957.638 0 1.1783-.1302 1.6211-.3906.4427-.2604.83-.6055 1.1621-1.0352l1.1035.8594c-.8854 1.3607-2.2136 2.041-3.9844 2.041zm-.2246-9.4726c-.7292 0-1.3412.2669-1.8359.8007-.4948.5274-.8008 1.2696-.918 2.2266h5.293v-.1367c-.0521-.918-.2995-1.6276-.7422-2.1289-.4427-.5078-1.0417-.7617-1.7969-.7617z"/><path d="m56.0762 20.1953c-1.4323 0-2.5977-.4687-3.4961-1.4062-.8985-.944-1.3477-2.2038-1.3477-3.7793v-.3321c0-1.0481.1986-1.9824.5957-2.8027.4037-.8268.9636-1.4714 1.6797-1.93359.7227-.46875 1.5039-.70313 2.3438-.70313 1.3737 0 2.4414.45248 3.2031 1.35742.7617.905 1.1426 2.2005 1.1426 3.8867v.752h-7.1582c.026 1.0416.3287 1.8847.9082 2.5293.5859.638 1.3281.957 2.2265.957.638 0 1.1784-.1302 1.6211-.3906s.8301-.6055 1.1621-1.0352l1.1035.8594c-.8854 1.3607-2.2135 2.041-3.9843 2.041zm-.2246-9.4726c-.7292 0-1.3412.2669-1.836.8007-.4948.5274-.8008 1.2696-.9179 2.2266h5.2929v-.1367c-.0521-.918-.2995-1.6276-.7422-2.1289-.4427-.5078-1.0416-.7617-1.7968-.7617z"/><path d="m61.8574 14.6289c0-1.6211.3841-2.9232 1.1524-3.9062.7682-.98963 1.7741-1.48442 3.0175-1.48442 1.237 0 2.2168.42318 2.9395 1.26952v-5.5078h1.8066v15h-1.6601l-.0879-1.1328c-.7227.8854-1.7285 1.3281-3.0176 1.3281-1.2239 0-2.2233-.5013-2.998-1.5039-.7683-1.0026-1.1524-2.3112-1.1524-3.9258zm1.8067.2051c0 1.1979.2474 2.1354.7421 2.8125.4948.6771 1.1784 1.0156 2.0508 1.0156 1.1459 0 1.9825-.5143 2.5098-1.543v-4.8535c-.5404-.9961-1.3704-1.4941-2.4902-1.4941-.8855 0-1.5756.3418-2.0704 1.0254-.4947.6836-.7421 1.6959-.7421 3.0371z"/><path d="m82.5312 14.834c0 1.6146-.371 2.9134-1.1132 3.8965-.7422.9765-1.7383 1.4648-2.9883 1.4648-1.3346 0-2.3665-.472-3.0957-1.416l-.0879 1.2207h-1.6602v-15h1.8067v5.5957c.7291-.90494 1.735-1.35742 3.0176-1.35742 1.2825 0 2.2884.48503 3.0175 1.45512.7357.97 1.1035 2.2981 1.1035 3.9843zm-1.8066-.2051c0-1.2305-.2376-2.181-.7129-2.8516-.4752-.6705-1.1588-1.0058-2.0508-1.0058-1.1914 0-2.0475.5534-2.5683 1.6601v4.5704c.5534 1.1067 1.416 1.6601 2.5879 1.6601.8659 0 1.5397-.3353 2.0215-1.0059.4817-.6705.7226-1.6796.7226-3.0273z"/><path d="m91.3398 20c-.1041-.2083-.1888-.5794-.2539-1.1133-.8398.8724-1.8424 1.3086-3.0078 1.3086-1.0416 0-1.8978-.293-2.5683-.8789-.6641-.5924-.9961-1.3411-.9961-2.2461 0-1.1002.4166-1.9531 1.25-2.5586.8398-.612 2.0182-.9179 3.5351-.9179h1.7578v-.8301c0-.6315-.1888-1.1328-.5664-1.5039-.3776-.3776-.9342-.5664-1.6699-.5664-.6445 0-1.1849.1627-1.6211.4882-.4362.3256-.6543.7194-.6543 1.1817h-1.8164c0-.5274.1856-1.0352.5567-1.5235.3776-.4947.8854-.88537 1.5234-1.17183.6445-.28646 1.3509-.42969 2.1191-.42969 1.2175 0 2.1713.30599 2.8614.91792.6901.6055 1.0481 1.4421 1.0742 2.5098v4.8633c0 .97.1237 1.7415.3711 2.3145v.1562zm-2.998-1.377c.5664 0 1.1035-.1464 1.6113-.4394s.8757-.6738 1.1035-1.1426v-2.168h-1.416c-2.2135 0-3.3203.6478-3.3203 1.9434 0 .5664.1888 1.0091.5664 1.3281s.8626.4785 1.4551.4785z"/><path d="m99.9336 18.7207c.6444 0 1.2074-.1953 1.6894-.5859.482-.3907.749-.8789.801-1.4649h1.709c-.033.6055-.241 1.1817-.625 1.7285-.384.5469-.899.9831-1.543 1.3086-.638.3256-1.315.4883-2.0314.4883-1.4388 0-2.5846-.4785-3.4375-1.4355-.8464-.9636-1.2695-2.2787-1.2695-3.9453v-.3028c0-1.0286.1888-1.9433.5664-2.7441s.9179-1.4225 1.6211-1.86526c.7096-.4427 1.5462-.66406 2.5097-.66406 1.1852 0 2.1682.35482 2.9492 1.06442.788.7097 1.208 1.6309 1.26 2.7637h-1.709c-.052-.6836-.313-1.2435-.781-1.6797-.463-.4427-1.036-.664-1.7192-.664-.9179 0-1.6308.332-2.1386.9961-.5013.6575-.752 1.6113-.752 2.8613v.3418c0 1.2174.2507 2.1549.752 2.8125.5013.6575 1.2174.9863 2.1484.9863z"/><path d="m109.113 15.1074-1.133 1.1817v3.7109h-1.806v-15h1.806v9.0723l.967-1.1621 3.291-3.47661h2.198l-4.112 4.41411 4.59 6.1523h-2.119z"/></g><path d="m19.6667 6.33333h2.6666c.7073 0 1.3856.28096 1.8857.78105.5.5001.781 1.17838.781 1.88562v8c0 .7072-.281 1.3855-.781 1.8856-.5001.5001-1.1784.7811-1.8857.7811h-2.6666v5.3333l-5.3334-5.3333h-5.3333c-.35023.0003-.69708-.0685-1.02062-.2026-.32355-.1341-.61741-.3308-.86471-.5788m0 0 4.55203-4.552h5.3333c.7072 0 1.3855-.2809 1.8856-.781s.7811-1.1784.7811-1.8856v-8.00003c0-.70725-.281-1.38552-.7811-1.88562s-1.1784-.78105-1.8856-.78105h-13.33333c-.70725 0-1.38552.28095-1.88562.78105s-.78105 1.17837-.78105 1.88562v8.00003c0 .7072.28095 1.3855.78105 1.8856s1.17837.781 1.88562.781h2.66666v5.3334z" stroke="#4a5568" stroke-linecap="round" stroke-linejoin="round" stroke-width="2"/></svg>