<svg fill="none" viewBox="0 0 87 27" xmlns="http://www.w3.org/2000/svg"><g fill="#4a5568"><path d="m9.46875 16.8242c0 1.6341-.37109 2.9395-1.11328 3.916-.74219.9701-1.73828 1.4551-2.98828 1.4551-1.15886 0-2.08659-.3808-2.78321-1.1426v5.0098h-2.373042v-14.6289h2.187502l.09765 1.0742c.69662-.8463 1.64388-1.2695 2.8418-1.2695 1.28906 0 2.29818.4818 3.02734 1.4453.73568.957 1.10352 2.2884 1.10352 3.9941zm-2.36328-.2051c0-1.0546-.21159-1.8912-.63477-2.5097-.41666-.6185-1.01562-.9278-1.79687-.9278-.97005 0-1.66667.4004-2.08985 1.2012v4.6875c.42969.8203 1.13282 1.2305 2.10938 1.2305.75521 0 1.3444-.3028 1.76758-.9082.42968-.612.64453-1.5365.64453-2.7735z"/><path d="m17.7988 22c-.1041-.2018-.1953-.5306-.2734-.9863-.7552.7877-1.6797 1.1816-2.7734 1.1816-1.0612 0-1.9271-.3027-2.5977-.9082s-1.0059-1.3542-1.0059-2.2461c0-1.1263.4167-1.9889 1.25-2.5879.8399-.6054 2.0378-.9082 3.5938-.9082h1.4551v-.6933c0-.5469-.153-.9831-.459-1.3086-.306-.3321-.7715-.4981-1.3965-.4981-.5404 0-.9831.1367-1.3281.4102-.3451.2669-.5176.6087-.5176 1.0254h-2.3731c0-.5795.1921-1.1198.5762-1.6211.3841-.5078.905-.905 1.5625-1.1914.6641-.2865 1.403-.4297 2.2168-.4297 1.237 0 2.2233.3125 2.959.9375.7357.6185 1.1133 1.4909 1.1328 2.6172v4.7656c0 .9505.1335 1.709.4004 2.2754v.166zm-2.6074-1.709c.4688 0 .9082-.1139 1.3184-.3418.4166-.2278.7291-.5338.9375-.918v-1.9921h-1.2793c-.8789 0-1.5397.153-1.9825.4589-.4427.306-.664.739-.664 1.2989 0 .4557.1497.8203.4492 1.0937.306.267.7129.4004 1.2207.4004z"/><path d="m25.2793 8.86523v2.56837h1.8652v1.7578h-1.8652v5.8984c0 .4037.0781.6967.2344.879.1627.1757.4492.2636.8593.2636.2735 0 .5502-.0325.8301-.0976v1.8359c-.5403.1497-1.0612.2246-1.5625.2246-1.8229 0-2.7344-1.0058-2.7344-3.0176v-5.9863h-1.7382v-1.7578h1.7382v-2.56837z"/><path d="m31.3047 12.5859c.7747-.8984 1.7545-1.3476 2.9394-1.3476 2.2526 0 3.3952 1.2858 3.4278 3.8574v6.9043h-2.3731v-6.8164c0-.7292-.1595-1.2435-.4785-1.543-.3125-.306-.7747-.459-1.3867-.459-.9505 0-1.6602.4232-2.1289 1.2696v7.5488h-2.3731v-15h2.3731z"/><path d="m49.3613 18.7285 1.6797-7.2949h2.3145l-2.8809 10.5664h-1.9531l-2.2656-7.2559-2.2266 7.2559h-1.9531l-2.8907-10.5664h2.3145l1.709 7.2168 2.168-7.2168h1.7871z"/><path d="m61.2559 22c-.1042-.2018-.1954-.5306-.2735-.9863-.7552.7877-1.6797 1.1816-2.7734 1.1816-1.0612 0-1.9271-.3027-2.5977-.9082-.6705-.6055-1.0058-1.3542-1.0058-2.2461 0-1.1263.4166-1.9889 1.25-2.5879.8398-.6054 2.0377-.9082 3.5937-.9082h1.4551v-.6933c0-.5469-.153-.9831-.459-1.3086-.306-.3321-.7715-.4981-1.3965-.4981-.5403 0-.983.1367-1.3281.4102-.345.2669-.5176.6087-.5176 1.0254h-2.373c0-.5795.192-1.1198.5761-1.6211.3842-.5078.905-.905 1.5626-1.1914.664-.2865 1.4029-.4297 2.2167-.4297 1.237 0 2.2234.3125 2.959.9375.7357.6185 1.1133 1.4909 1.1328 2.6172v4.7656c0 .9505.1335 1.709.4004 2.2754v.166zm-2.6075-1.709c.4688 0 .9082-.1139 1.3184-.3418.4167-.2278.7292-.5338.9375-.918v-1.9921h-1.2793c-.8789 0-1.5397.153-1.9824.4589-.4427.306-.6641.739-.6641 1.2989 0 .4557.1498.8203.4492 1.0937.306.267.7129.4004 1.2207.4004z"/><path d="m69.3027 18.6016 2.1485-7.168h2.5293l-4.1993 12.168c-.6445 1.7773-1.7382 2.666-3.2812 2.666-.3451 0-.7259-.0586-1.1426-.1758v-1.8359l.4492.0293c.599 0 1.0482-.1107 1.3477-.3321.306-.2148.5469-.5794.7227-1.0937l.3418-.9082-3.711-10.5176h2.5586z"/></g><path d="m73.6603 6 6.9282-4m0 0 4 6.9282m-4-6.9282-2.9282 10.9282-5.4641-1.4641-2.1962 8.1962" stroke="#4a5568" stroke-linecap="round" stroke-linejoin="round" stroke-width="2"/></svg>