<svg fill="none" viewBox="0 0 84 18" xmlns="http://www.w3.org/2000/svg"><g fill="#4a5568"><path d="m31.0156 10.7578c0-.3906-.1484-.6927-.4453-.90624-.2917-.21875-.8047-.40625-1.5391-.5625-.7291-.15625-1.3098-.34375-1.7421-.5625-.4271-.21875-.7448-.47916-.9532-.78125-.2031-.30208-.3047-.66146-.3047-1.07812 0-.69271.2917-1.27865.875-1.75781.5886-.47917 1.3386-.71876 2.25-.71876.9584 0 1.7344.2474 2.3282.74219.5989.49479.8984 1.12761.8984 1.89844h-1.4531c0-.39583-.1693-.73698-.5078-1.02344-.3334-.28646-.7552-.42969-1.2657-.42969-.526 0-.9374.11459-1.2343.34376-.2969.22916-.4453.52864-.4453.89843 0 .34896.138.61198.414.78907.2761.17708.7735.34635 1.4922.50781.724.16146 1.3099.35416 1.7578.57812s.7787.49479.9922.8125c.2188.3125.3281.69529.3281 1.14839 0 .7553-.302 1.362-.9062 1.8204-.6042.4531-1.388.6796-2.3516.6796-.6771 0-1.276-.1197-1.7969-.3593-.5208-.2396-.9296-.5729-1.2265-1-.2917-.4323-.4375-.8985-.4375-1.3985h1.4453c.026.4844.2187.8698.5781 1.1563.3646.2812.8438.4219 1.4375.4219.5469 0 .9844-.1094 1.3125-.3282.3334-.2239.5-.5208.5-.8906z"/><path d="m41.5 8.86719c0 1.29171-.2969 2.33071-.8906 3.11721-.5938.7812-1.3906 1.1718-2.3906 1.1718-1.0678 0-1.8933-.3776-2.4766-1.1328l-.0703.9766h-1.3281v-12h1.4453v4.47656c.5833-.72396 1.388-1.08594 2.414-1.08594 1.0261 0 1.8308.38803 2.4141 1.16407.5885.77604.8828 1.83854.8828 3.1875zm-1.4453-.16407c0-.98437-.1901-1.74479-.5703-2.28124-.3802-.53646-.9271-.80469-1.6406-.80469-.9532 0-1.6381.44271-2.0547 1.32812v3.65629c.4427.8854 1.1328 1.3281 2.0703 1.3281.6927 0 1.2317-.2682 1.6172-.8047.3854-.5365.5781-1.34375.5781-2.42188z"/><path d="m48.5469 13c-.0834-.1667-.1511-.4635-.2031-.8906-.6719.6979-1.474 1.0468-2.4063 1.0468-.8333 0-1.5182-.2343-2.0547-.7031-.5312-.4739-.7969-1.0729-.7969-1.7969 0-.88016.3334-1.56245 1-2.04682.6719-.48959 1.6146-.73438 2.8282-.73438h1.4062v-.66406c0-.50521-.151-.90625-.4531-1.20313-.3021-.30208-.7474-.45312-1.336-.45312-.5156 0-.9479.13021-1.2968.39062-.349.26042-.5235.57552-.5235.94531h-1.4531c0-.42187.1484-.82812.4453-1.21874.3021-.39584.7084-.70834 1.2188-.9375.5156-.22917 1.0807-.34376 1.6953-.34376.9739 0 1.737.2448 2.289.73438.5521.48438.8386 1.15365.8594 2.00781v3.89059c0 .7761.099 1.3933.2969 1.8516v.125zm-2.3985-1.1016c.4532 0 .8828-.1172 1.2891-.3515.4063-.2344.7005-.5391.8828-.9141v-1.73436h-1.1328c-1.7708 0-2.6563.51823-2.6563 1.55466 0 .4531.1511.8073.4532 1.0625s.6901.3828 1.164.3828z"/><path d="m53.6016 13h-1.4454v-12h1.4454z"/><path d="m63.0781 8.86719c0 1.29171-.2969 2.33071-.8906 3.11721-.5937.7812-1.3906 1.1718-2.3906 1.1718-1.0677 0-1.8933-.3776-2.4766-1.1328l-.0703.9766h-1.3281v-12h1.4453v4.47656c.5833-.72396 1.388-1.08594 2.414-1.08594 1.0261 0 1.8308.38803 2.4141 1.16407.5886.77604.8828 1.83854.8828 3.1875zm-1.4453-.16407c0-.98437-.1901-1.74479-.5703-2.28124-.3802-.53646-.9271-.80469-1.6406-.80469-.9531 0-1.638.44271-2.0547 1.32812v3.65629c.4427.8854 1.1328 1.3281 2.0703 1.3281.6927 0 1.2318-.2682 1.6172-.8047s.5781-1.34375.5781-2.42188z"/><path d="m68.4141 13.1562c-1.1459 0-2.0782-.375-2.7969-1.125-.7188-.7552-1.0781-1.763-1.0781-3.02339v-.26562c0-.83854.1588-1.58594.4765-2.24219.3229-.66146.7709-1.17708 1.3438-1.54688.5781-.375 1.2031-.5625 1.875-.5625 1.0989 0 1.9531.36198 2.5625 1.08594.6093.72396.914 1.76042.914 3.10938v.60156h-5.7265c.0208.8333.263 1.5078.7265 2.0234.4688.5105 1.0625.7657 1.7813.7657.5104 0 .9427-.1042 1.2969-.3125.3541-.2084.664-.4844.9297-.8282l.8828.6875c-.7084 1.0886-1.7709 1.6328-3.1875 1.6328zm-.1797-7.57808c-.5834 0-1.0729.21355-1.4688.64063-.3958.42187-.6406 1.01563-.7344 1.78125h4.2344v-.10938c-.0416-.73437-.2396-1.30208-.5937-1.70312-.3542-.40625-.8334-.60938-1.4375-.60938z"/><path d="m80.875 11.0078 1.625-6.46092h1.4453l-2.4609 8.45312h-1.1719l-2.0547-6.40625-2 6.40625h-1.1719l-2.4531-8.45312h1.4375l1.6641 6.32812 1.9687-6.32812h1.1641z"/></g><path d="m17.6039 12.428c-.2792-.2792-.6348-.4696-1.022-.547l-2.387-.477c-1.3083-.2616-2.6666-.0797-3.86.517l-.318.158c-1.19337.5967-2.55162.7786-3.85998.517l-1.931-.386c-.3228-.0645-.65652-.0483-.97157.0471-.31504.0954-.60166.2671-.83443.4999m3.756-11.757h7.99998l-1 1v5.172c.0001.53039.2109 1.03901.586 1.414l5 5c1.26 1.26.367 3.414-1.415 3.414h-14.34298c-1.782 0-2.674-2.154-1.414-3.414l5-5c.3751-.37499.58589-.88361.586-1.414v-5.172z" stroke="#4a5568" stroke-linecap="round" stroke-linejoin="round" stroke-width="1.5"/></svg>