<svg fill="none" viewBox="0 0 184 35" xmlns="http://www.w3.org/2000/svg"><g fill="#fff"><path d="m60.6948 20.5326c0 4.1753-2.1038 6.2629-6.3114 6.2629-4.2075 0-6.3113-2.0876-6.3113-6.2629v-9.5799c0-.3556.1324-.6649.3974-.9278.2649-.26288.5766-.39433.935-.39433h.6545c.3584 0 .6701.13145.935.39433.2649.2629.3974.5722.3974.9278v9.7655c0 1.2062.2415 2.0799.7246 2.6211.4987.5258 1.2701.7887 2.3142.7887s1.8077-.2629 2.2908-.7887c.4986-.5412.748-1.4149.748-2.6211v-9.7655c0-.3556.1324-.6649.3974-.9278.2649-.26288.5766-.39433.935-.39433h.561c.3584 0 .6701.13145.935.39433.2649.2629.3974.5722.3974.9278z"/><path d="m66.9999 18.9553v3.1547c0 .6185.2649 1.1675.7948 1.6469.5454.4793 1.1765.719 1.8934.719.8259 0 1.4804-.3324 1.9635-.9974.4831-.6649.7247-1.6469.7247-2.9459 0-2.6288-.8961-3.9433-2.6882-3.9433-.7169 0-1.348.2397-1.8934.7191-.5299.4794-.7948 1.0284-.7948 1.6469zm-1.7531 12.7114c-.3584 0-.6701-.1315-.935-.3944-.265-.2629-.3974-.5721-.3974-.9278v-14.5206c0-.3557.1324-.665.3974-.9279.2649-.2628.5766-.3943.935-.3943h.2805c.374 0 .6934.1315.9584.3943.2649.2475.4051.5567.4207.9279v.1623c0 .0155.0078.0232.0234.0232s.0312-.0077.0468-.0232c.561-.6185 1.122-1.0592 1.683-1.3221s1.2155-.3944 1.9635-.3944c1.4649 0 2.6336.549 3.5063 1.647.8727 1.0824 1.309 2.6211 1.309 4.6159 0 1.933-.4597 3.464-1.3791 4.5928-.9039 1.1134-2.0493 1.6701-3.4362 1.6701-1.3558 0-2.5323-.4871-3.5297-1.4613-.0156-.0155-.0311-.0232-.0467-.0232s-.0234.0077-.0234.0232v5.0103c0 .3557-.1325.6649-.3974.9278-.2493.2629-.5532.3944-.9116.3944z"/><path d="m78.2627 17.2156c-.3117 0-.5766-.1082-.7948-.3247-.2182-.232-.3273-.5026-.3273-.8119s.1091-.5721.3273-.7886.4831-.3248.7948-.3248h1.122c.1402 0 .2104-.0696.2104-.2087v-2.8763c0-.3557.1246-.665.374-.9279.2649-.2628.5766-.3943.935-.3943h.4675c.3584 0 .6701.1315.935.3943.2649.2629.3974.5722.3974.9279v2.8763c0 .1391.0701.2087.2104.2087h2.6647c.3117 0 .5766.1083.7948.3248.2338.2165.3506.4793.3506.7886s-.1168.5799-.3506.8119c-.2182.2165-.4831.3247-.7948.3247h-2.6647c-.1403 0-.2104.0619-.2104.1856v4.6856c0 1.0051.1091 1.6546.3272 1.9484.2182.2938.6701.4407 1.3558.4407.374 0 .6545-.0154.8415-.0464.3117-.0309.5844.0387.8182.2088.2337.1701.3506.4021.3506.6959 0 .3402-.1169.6495-.3506.9278-.2182.2629-.4909.4098-.8182.4407-.6857.0619-1.1999.0928-1.5428.0928-1.5116 0-2.5713-.317-3.179-.951-.6078-.6495-.9116-1.8016-.9116-3.4562v-4.9871c0-.1237-.0702-.1856-.2104-.1856z"/><path d="m91.9942 26.5636c-.3584 0-.6701-.1315-.935-.3944s-.3974-.5721-.3974-.9278v-9.4175c0-.3557.1325-.665.3974-.9279.2649-.2628.5766-.3943.935-.3943h.6078c.3584 0 .6701.1315.935.3943.2649.2629.3974.5722.3974.9279v9.4175c0 .3557-.1325.6649-.3974.9278s-.5766.3944-.935.3944zm0-14.6134c-.3584 0-.6701-.1315-.935-.3944s-.3974-.5721-.3974-.9278v-.1392c0-.3556.1325-.66493.3974-.92781.2649-.26289.5766-.39433.935-.39433h.6078c.3584 0 .6701.13144.935.39433.2649.26288.3974.57221.3974.92781v.1392c0 .3557-.1325.6649-.3974.9278s-.5766.3944-.935.3944z"/><path d="m99.1679 26.5636c-.3584 0-.6701-.1315-.935-.3944-.2493-.2629-.374-.5721-.374-.9278v-9.4175c0-.3557.1247-.665.374-.9279.2649-.2628.5766-.3943.935-.3943h.3273c.3584 0 .6618.1237.9118.3711.265.2475.405.549.421.9047v.1624c0 .0154.007.0231.023.0231.031 0 .047-.0077.047-.0231.919-1.1135 1.955-1.6702 3.109-1.6702.701 0 1.262.1315 1.683.3944.436.2629.818.7268 1.145 1.3917 0 .0155.016.0232.047.0232.015 0 .031-.0077.047-.0232.981-1.1907 2.088-1.7861 3.319-1.7861 1.293 0 2.22.348 2.782 1.0439.576.6958.864 1.8943.864 3.5953v6.3325c0 .3557-.132.6649-.397.9278-.249.2629-.553.3944-.912.3944h-.397c-.358 0-.67-.1315-.935-.3944s-.397-.5721-.397-.9278v-5.8686c0-1.1288-.109-1.8711-.328-2.2268-.218-.3556-.639-.5335-1.262-.5335-.405 0-.81.1856-1.215.5567-.406.3712-.608.7423-.608 1.1134v6.9588c0 .3557-.133.6649-.398.9278s-.576.3944-.935.3944h-.397c-.358 0-.67-.1315-.935-.3944-.249-.2629-.374-.5721-.374-.9278v-5.8686c0-1.1134-.117-1.8479-.351-2.2036-.218-.3711-.639-.5567-1.262-.5567-.405 0-.81.1856-1.215.5567-.406.3712-.608.7423-.608 1.1134v6.9588c0 .3557-.133.6649-.398.9278-.264.2629-.5762.3944-.9346.3944z"/><path d="m121.967 16.427c-.795 0-1.411.2242-1.847.6726-.421.433-.686 1.1366-.795 2.1109 0 .1237.063.1855.187.1855h4.582c.125 0 .187-.0618.187-.1855-.062-1.8557-.834-2.7835-2.314-2.7835zm.584 10.3685c-2.041 0-3.615-.5258-4.722-1.5773-1.091-1.067-1.636-2.6289-1.636-4.6856 0-2.0412.491-3.5953 1.473-4.6623.981-1.067 2.4-1.6006 4.254-1.6006 3.46 0 5.236 1.9485 5.33 5.8454.015.3711-.117.6804-.398.9278-.28.2475-.608.3712-.982.3712h-6.381c-.14 0-.195.0696-.164.2087.109 1.0361.452 1.7939 1.029 2.2732.592.464 1.449.6959 2.571.6959.701 0 1.481-.116 2.338-.3479.28-.0773.537-.031.771.1392.249.1701.374.402.374.6958 0 .3557-.109.6727-.327.9511-.203.2628-.475.4252-.818.4871-.873.1855-1.777.2783-2.712.2783z"/><path d="m131.338 26.5636c-.359 0-.67-.1315-.935-.3944s-.397-.5721-.397-.9278v-14.2887c0-.3556.132-.6649.397-.9278.265-.26288.576-.39433.935-.39433h.584c.405 0 .779.10825 1.122.32475.343.21648.592.50258.748.85828l4.091 8.768c0 .0155.008.0232.023.0232.016 0 .024-.0077.024-.0232l4.09-8.768c.156-.3557.406-.6418.748-.85828.343-.2165.717-.32475 1.122-.32475h.678c.359 0 .67.13145.935.39433.265.2629.398.5722.398.9278v14.2887c0 .3557-.133.6649-.398.9278s-.576.3944-.935.3944h-.514c-.358 0-.67-.1315-.935-.3944s-.397-.5721-.397-.9278v-10.0902c0-.0155-.008-.0232-.024-.0232-.015 0-.023.0077-.023.0232l-2.805 5.9613c-.172.3557-.436.6495-.795.8815-.343.2165-.709.3247-1.098.3247h-.141c-.389 0-.763-.1082-1.122-.3247-.343-.232-.6-.5258-.771-.8815l-2.805-5.9613c0-.0155-.008-.0232-.024-.0232-.015 0-.023.0077-.023.0232v10.0902c0 .3557-.132.6649-.397.9278s-.577.3944-.935.3944z"/><path d="m155.085 20.7646c-2.229 0-3.343.6804-3.343 2.0412 0 .4949.14.8969.421 1.2062.296.3093.67.4639 1.122.4639.888 0 1.605-.2706 2.15-.8118.546-.5567.818-1.3145.818-2.2732v-.4175c0-.1392-.07-.2088-.21-.2088zm-2.642 6.0309c-1.059 0-1.94-.3402-2.641-1.0206-.686-.6959-1.029-1.5928-1.029-2.6907 0-1.3454.515-2.3892 1.543-3.1315 1.044-.7422 2.634-1.1134 4.769-1.1134h.958c.14 0 .21-.0696.21-.2087v-.1856c0-.7113-.171-1.2062-.514-1.4845-.343-.2938-.95-.4408-1.823-.4408-.904 0-2.01.1624-3.319.4872-.281.0773-.538.0309-.772-.1392-.234-.1856-.35-.4253-.35-.7191 0-.3557.109-.6727.327-.951.218-.2938.499-.4717.841-.5335 1.185-.2629 2.299-.3944 3.343-.3944 1.995 0 3.39.3557 4.184 1.0671.795.7113 1.192 1.9561 1.192 3.7345v6.1701c0 .3557-.132.6649-.397.9278-.249.2629-.553.3944-.912.3944h-.257c-.374 0-.693-.1237-.958-.3712-.265-.2629-.405-.5799-.421-.951v-.3247c0-.0155-.008-.0232-.023-.0232-.031 0-.047.0077-.047.0232-.951 1.2525-2.252 1.8788-3.904 1.8788z"/><path d="m162.291 17.2156c-.312 0-.577-.1082-.795-.3247-.218-.232-.327-.5026-.327-.8119s.109-.5721.327-.7886.483-.3248.795-.3248h1.122c.14 0 .21-.0696.21-.2087v-2.8763c0-.3557.125-.665.374-.9279.265-.2628.577-.3943.935-.3943h.468c.358 0 .67.1315.935.3943.265.2629.397.5722.397.9279v2.8763c0 .1391.07.2087.21.2087h2.665c.312 0 .577.1083.795.3248.234.2165.351.4793.351.7886s-.117.5799-.351.8119c-.218.2165-.483.3247-.795.3247h-2.665c-.14 0-.21.0619-.21.1856v4.6856c0 1.0051.109 1.6546.327 1.9484s.67.4407 1.356.4407c.374 0 .655-.0154.842-.0464.311-.0309.584.0387.818.2088.233.1701.35.4021.35.6959 0 .3402-.117.6495-.35.9278-.218.2629-.491.4098-.818.4407-.686.0619-1.2.0928-1.543.0928-1.512 0-2.571-.317-3.179-.951-.608-.6495-.912-1.8016-.912-3.4562v-4.9871c0-.1237-.07-.1856-.21-.1856z"/><path d="m178.716 16.427c-.795 0-1.41.2242-1.847.6726-.42.433-.685 1.1366-.794 2.1109 0 .1237.062.1855.187.1855h4.581c.125 0 .187-.0618.187-.1855-.062-1.8557-.834-2.7835-2.314-2.7835zm.584 10.3685c-2.041 0-3.615-.5258-4.722-1.5773-1.09-1.067-1.636-2.6289-1.636-4.6856 0-2.0412.491-3.5953 1.473-4.6623s2.4-1.6006 4.254-1.6006c3.46 0 5.236 1.9485 5.33 5.8454.015.3711-.117.6804-.398.9278-.28.2475-.607.3712-.981.3712h-6.382c-.14 0-.195.0696-.163.2087.109 1.0361.451 1.7939 1.028 2.2732.592.464 1.449.6959 2.571.6959.702 0 1.481-.116 2.338-.3479.28-.0773.537-.031.771.1392.25.1701.374.402.374.6958 0 .3557-.109.6727-.327.9511-.203.2628-.475.4252-.818.4871-.873.1855-1.777.2783-2.712.2783z"/></g><path clip-rule="evenodd" d="m29.3143 0c3.0357 0 5.4965 2.47421 5.4965 5.52632v23.94738c0 3.0521-2.4608 5.5263-5.4965 5.5263h-23.81788c-3.03559 0-5.49644289-2.4742-5.49644289-5.5263v-23.94738c0-3.05211 2.46085289-5.52632 5.49644289-5.52632zm-.2882 23.741h-.8026c-.5922 0-1.0724-.5517-1.0724-1.2322v-9.8659c0-.7641.5393-1.3839 1.2044-1.3839h.6706c.665 0 1.2043.6198 1.2043 1.3839v9.7143c0 .7641-.5393 1.3838-1.2043 1.3838zm-17.7176 4.8116h.8025c.665 0 1.2043-.6197 1.2043-1.3839v-19.33747c0-.76416-.5393-1.38386-1.2043-1.38386h-.6706c-.6651 0-1.2044.6197-1.2044 1.38386v19.48917c0 .6804.4802 1.2322 1.0725 1.2322zm12.0792 0h-.8026c-.5922 0-1.0723-.5518-1.0723-1.2322v-19.48917c0-.76416.5393-1.38386 1.2043-1.38386h.6706c.6651 0 1.2044.6197 1.2044 1.38386v19.33747c0 .7642-.5393 1.3839-1.2044 1.3839zm-17.71768-4.8116h.80257c.66507 0 1.20436-.6197 1.20436-1.3838v-9.7143c0-.7641-.53929-1.3839-1.20436-1.3839h-.67066c-.66498 0-1.20427.6198-1.20427 1.3839v9.8659c0 .6805.48021 1.2322 1.07236 1.2322zm12.07938.3914h-.8026c-.5922 0-1.0724-.5517-1.0724-1.2323v-9.5901c0-.7644.5392-1.3838 1.2043-1.3838h.6707c.6649 0 1.2042.6194 1.2042 1.3838v9.4385c0 .7642-.5393 1.3839-1.2042 1.3839z" fill="#f7fafc" fill-rule="evenodd"/></svg>